<svg xmlns="http://www.w3.org/2000/svg" width="19" height="20"><path fill="#fff" d="M15.392 12.795c-1.055 0-2 .454-2.66 1.175l-5.73-2.753c.136-.382.214-.789.214-1.217 0-.427-.078-.835-.215-1.217l5.73-2.752A3.606 3.606 0 0 0 19 3.603 3.606 3.606 0 0 0 15.393 0a3.606 3.606 0 0 0-3.608 3.603c0 .191.02.377.048.56l-6.1 2.93A3.605 3.605 0 0 0 0 10a3.605 3.605 0 0 0 5.732 2.907l6.1 2.93a3.636 3.636 0 0 0-.048.56A3.606 3.606 0 0 0 15.392 20a3.605 3.605 0 0 0 3.607-3.603 3.604 3.604 0 0 0-3.607-3.602z"/></svg>